<svg xmlns="http://www.w3.org/2000/svg" width="526.87" height="536.26" viewBox="0 0 526.87 536.26">
  <path class="a" d="M7432.72,6950.83c-38.07,30.39-76.18,60.81-112.32,93.51-34.21,30.94-66,64.29-97,98.45-30.43,33.6-60.13,67.85-91,101-30.71,32.93-62.71,64.59-97.29,93.47-32.37,27-66.31,53.55-89,89.78q-4,6.38-7.4,13.1c-3.54,7-2.07,16.58,5.38,20.52,6.83,3.61,16.74,2.09,20.52-5.38a173.74,173.74,0,0,1,16.36-26.06c.31-.41.64-.83.95-1.25-2.74,3.76-1.05,1.36-.41.55s1.31-1.64,2-2.45q2.49-3.06,5.09-6c3.48-4,7.1-7.84,10.8-11.6,14.46-14.67,30.33-27.86,46.17-41,16.92-14,33.61-28.29,49.64-43.35,16.37-15.38,32.18-31.34,47.65-47.63,31.21-32.86,61-67,91.26-100.75,30.44-33.89,61.44-67.33,94.76-98.43,35.51-33.14,73.25-63.79,111.17-94.12q7-5.58,14-11.15c2.8-2.24,4.39-7.19,4.39-10.61a15.28,15.28,0,0,0-4.39-10.6c-2.86-2.63-6.62-4.58-10.61-4.4-4.22.19-7.33,1.78-10.61,4.4Z" transform="translate(-6931.45 -6933.69)"/>
  <path class="a" d="M6935.73,6959.23l97.07,99.36,96.72,99q48.22,49.38,96.47,98.74c31.23,32,62.19,64.24,94.14,95.5,15.66,15.32,31.6,30.35,48.06,44.82,16.66,14.66,34.11,28.33,51.25,42.41q6.3,5.18,12.46,10.5c3,2.64,6.48,4.4,10.61,4.4a15.29,15.29,0,0,0,10.61-4.4c5.17-5.63,6.33-15.72,0-21.21-16.85-14.6-34.65-28.06-51.64-42.48-16.71-14.17-32.86-29-48.67-44.14-32-30.65-62.64-62.63-93.58-94.3l-96.36-98.63-97.07-99.36-97.07-99.36L6957,6938c-5.5-5.63-15.78-5.93-21.22,0s-5.86,15.21,0,21.21Z" transform="translate(-6931.45 -6933.69)"/>
  <path class="a" d="M6977.13,7428.8c-2.73-1.28-5.07-2.22-8.21-2.18a16.31,16.31,0,0,0-10.88,4.56c-4.28,3.93-5.83,11-4.2,16.45a16.57,16.57,0,0,0,15.69,11.72c5.6.07,10.07-2.73,14.09-6.28,7.11-6.29,14.11-12.71,21.15-19.07,14.08-12.75,28.1-25.58,41.92-38.62,27.47-25.91,54.2-52.7,78.92-81.28,14.69-17,28.12-34.85,41.82-52.61l-2.35,3a172.85,172.85,0,0,1,16.06-18.33,219.8,219.8,0,0,1,18.47-15.74l-3,2.34c12.27-9.47,24.81-18.6,37.23-27.86,6-4.49,12.1-8.91,18.06-13.49,7.21-5.54,13.68-11.16,18.71-18.86,4.37-6.67,7.08-14.22,11.92-20.62l-2.35,3a109.42,109.42,0,0,1,13.55-13.93c5.31-4.77,10.66-9.52,16-14.28l32.83-29.34,65-58.06,36.64-32.73c5.87-5.25,5.74-15.95,0-21.22-6.26-5.75-15-5.59-21.21,0l-74.32,66.4-74.32,66.4c-7,6.21-13.47,12.57-18.9,20.2-4.78,6.72-7.41,14.68-12.34,21.3l2.35-3a63.85,63.85,0,0,1-11.4,10.94l3-2.35c-15.16,11.71-30.72,22.93-46.07,34.39s-30.59,23.24-42.83,38.25c-7.12,8.72-13.68,17.9-20.56,26.82l2.35-3a831,831,0,0,1-61.69,70.48c-21.73,22.36-44.4,43.77-67.38,64.83-13,11.92-25.89,24.12-39.32,35.58l3-2.34a6.09,6.09,0,0,1-1.25.81l3.58-1.51-.67.24,4-.54-.68.07,4,.54-.67-.16,3.58,1.51-.34-.22,5.38,5.38-.21-.33,1.51,3.59-.1-.39.53,4v-.42l-.53,4,.08-.41-1.51,3.59a1.46,1.46,0,0,1,.37-.65l-5.38,5.38.27-.17-7.57,2.05.31,0-7.58-2.05.34.16c3.74,1.74,7.45,2.65,11.56,1.51a15.27,15.27,0,0,0,9-6.89c3.5-6.63,2.21-17-5.39-20.52Z" transform="translate(-6931.45 -6933.69)"/>
  <path class="a" d="M6958.14,7437.45l81.54-86.48q40.69-43.16,81.43-86.28,40.37-42.49,81.77-84,41.45-41.64,83.3-82.89,20.79-20.62,41.6-41.23c13.28-13.1,26.85-25.87,41.32-37.67q5.4-4.41,10.94-8.68l-3,2.35c15.22-11.72,31-22.64,47.2-33,6.6-4.23,9.9-13.52,5.38-20.52-4.25-6.6-13.46-9.91-20.52-5.38q-27,17.31-52.31,37a547.4,547.4,0,0,0-46.34,41c-30.77,30.13-61.23,60.59-91.77,91s-61.09,61-91.09,92c-30.25,31.28-60,63.06-89.83,94.72l-89.88,95.33-10.91,11.57c-5.38,5.72-6.09,15.63,0,21.22,5.84,5.36,15.46,6.1,21.21,0Z" transform="translate(-6931.45 -6933.69)"/>
  <path class="a" d="M6935.89,6988q43.59,49.74,88.22,98.55t90.31,96.65q45.67,47.84,92.36,94.69c31.12,31.23,62.39,62.36,94.77,92.28q47.88,44.25,98.69,85.18,6.39,5.14,12.82,10.24c3.25,2.57,6.3,4.39,10.61,4.39a15.28,15.28,0,0,0,10.61-4.39c2.62-2.86,4.57-6.61,4.39-10.61-.17-3.7-1.35-8.19-4.39-10.6q-51.3-40.62-99.75-84.64c-32.6-29.62-64-60.54-95.14-91.65s-62.07-62.64-92.6-94.45-60.72-64-90.57-96.41-59.13-65-88.17-98q-5.48-6.22-10.94-12.47c-5.19-5.92-16-5.7-21.22,0-5.79,6.32-5.53,14.9,0,21.22Z" transform="translate(-6931.45 -6933.69)"/>
  <path class="a" d="M6969.36,6943.33l-.18.17,14.59-3.86-.16,0,9,6.9-.12-.19,1.51,3.59-.08-.27.54,4,0-.27-.53,4,.05-.22-6.89,9,.13-.09-11.55,1.51.23.1-3.58-1.51,2.53,1.93-3-2.35c30.26,23.44,55.67,52.22,81.06,80.67,12.74,14.29,25.54,28.54,39.06,42.1,14.72,14.77,30.41,28.51,46.06,42.27,16,14.07,31.72,28.4,46.86,43.39,15.55,15.39,30.88,31,46.29,46.54l93.22,93.94,93.22,93.93,11.65,11.75c5.53,5.57,15.75,5.95,21.21,0,2.63-2.86,4.57-6.62,4.4-10.61a16.88,16.88,0,0,0-4.4-10.61l-5.16-6.09c-2.36-2.79-7.08-4.39-10.6-4.39A15.26,15.26,0,0,0,7424,7393c-2.62,2.86-4.57,6.61-4.39,10.61a16.82,16.82,0,0,0,4.39,10.61l5.16,6.09,21.21-21.22-97.1-97.85-97.11-97.85c-16.07-16.19-32.06-32.47-48.25-48.55-15.76-15.66-32.09-30.63-48.77-45.29-16.25-14.29-32.53-28.57-47.75-44-14-14.19-27.29-29.09-40.57-44s-26.35-29.52-40.31-43.54c-7-7-14.18-13.87-21.64-20.41q-5.67-5-11.54-9.7c-2.66-2.12-5.34-4.2-8-6.27-5.68-4.35-13.13-4.76-18.93-.28a15.55,15.55,0,0,0,5.43,27.22c5.26,1.64,10.9-.44,14.78-4,5.77-5.34,5.81-15.88,0-21.21a15.33,15.33,0,0,0-21.22,0Z" transform="translate(-6931.45 -6933.69)"/>
</svg>
