<svg xmlns="http://www.w3.org/2000/svg" width="538.14" height="539.28" viewBox="0 0 538.14 539.28">
  <path class="a" d="M7441.17,6942.83q-58.56,48.15-115.27,98.49-28.42,25.26-56.38,51.05c-18.32,16.92-36.85,33.75-54.47,51.4a203.74,203.74,0,0,0-24.89,30.09c-6.66,9.88-12.64,20.19-19.49,29.94-1.54,2.2-3.12,4.36-4.72,6.51-.76,1-1.53,2-2.29,3,2.94-3.94-.31.37-1,1.28q-5.13,6.44-10.56,12.61c-7.06,8-14.47,15.77-22.08,23.3-31.23,30.92-65.81,58.36-95.76,90.6-14.49,15.6-27.69,32.34-41.7,48.37-6.94,8-14.09,15.75-21.68,23.09-3.81,3.69-7.73,7.27-11.78,10.68-1.87,1.58-3.79,3.08-5.69,4.62,3.77-3,.38-.31-.52.36q-1.8,1.34-3.64,2.61-6.36,4.47-13.14,8.28c-6.84,3.86-9.72,13.79-5.38,20.52,4.46,6.92,13.2,9.51,20.52,5.39,38.47-21.7,64.75-57.67,93.15-90.35,28.84-33.18,62.74-61.09,94.63-91.18,15.78-14.88,31-30.39,44.58-47.35a343.35,343.35,0,0,0,21.5-30.05c3.22-5.05,6.37-10.15,9.67-15.15q2.47-3.75,5.09-7.39c.83-1.15,1.72-2.26,2.54-3.42-2.17,3.05-1.16,1.48-.61.81.7-.85,1.38-1.7,2.08-2.54,7.75-9.29,16.58-17.61,25.34-25.93q13.88-13.18,27.87-26.23,27.64-25.76,55.78-51,56.63-50.77,115.17-99.36,7.17-6,14.38-11.88c2.79-2.3,4.39-7.13,4.39-10.6a15.3,15.3,0,0,0-4.39-10.61c-2.86-2.62-6.62-4.57-10.61-4.39a17,17,0,0,0-10.61,4.39Z" transform="translate(-6928.64 -6932.5)"/>
  <path class="a" d="M6935,6958l102.12,99.87q51,49.89,102,99.77,50.64,49.55,101.06,99.33c32,31.69,64.09,63.35,95,96.1,15.07,16,29.86,32.21,44.15,48.89q10.71,12.48,21,25.31c3.43,4.27,6.66,8.72,10.18,12.92-2.76-3.29-.14-.18.52.69l2.56,3.36q2.7,3.57,5.36,7.15,4.76,6.43,9.38,13c2.31,3.25,5,5.8,9,6.89a15.34,15.34,0,0,0,11.56-1.51c6.34-4.09,10.24-13.68,5.38-20.53-26.15-36.84-55.32-71.45-86-104.61-30.3-32.77-62-64.23-93.63-95.66q-50.47-50.09-101.34-99.76-51.14-50.07-102.31-100.07l-102.12-99.87-12.72-12.44c-5.61-5.5-15.69-6-21.21,0s-6,15.35,0,21.21Z" transform="translate(-6928.64 -6932.5)"/>
  <path class="a" d="M6981.74,7467.36q58-55.19,112.73-113.58,27.21-29,53.59-58.79c17-19.14,33.46-38.67,50.2-58,17.63-20.35,36-40.26,57.32-56.82l-3,2.35a218.78,218.78,0,0,1,19.8-13.66l-22-16.94-.09.43,1.52-3.58-.18.35,2.35-3-.26.28,3-2.34-.31.21,3.58-1.51a2.1,2.1,0,0,1-.77.24l4-.54a3.24,3.24,0,0,1-.88,0l4,.53a3.79,3.79,0,0,1-.89-.25l3.58,1.51a3,3,0,0,1-.8-.46l3,2.35a3,3,0,0,1-.62-.66l2.34,3-.21-.4,1.51,3.59-.13-.44.53,4a4.1,4.1,0,0,1,0-1.44l-.54,4a5.15,5.15,0,0,1,.43-1.38l-1.52,3.58a13.29,13.29,0,0,1,1.21-1.93l-2.35,3c3.62-4.42,7.92-8.39,11.87-12.52l12-12.51,24.35-25.37c15.53-16.18,30.92-32.54,47.31-47.87,8.92-8.34,18.16-16.31,27.81-23.79l-3,2.34c12.79-9.87,26-19.14,38.58-29.34s23.68-21.44,32.88-34.67c2.13-3,2.47-8.1,1.52-11.56a15.32,15.32,0,0,0-6.9-9c-7.66-4.05-15.72-1.51-20.52,5.38-1.21,1.75-2.47,3.46-3.77,5.15l2.35-3c-9.69,12.37-21.62,22.65-34,32.22l3-2.34c-12,9.21-24.31,17.92-36.11,27.36a449.79,449.79,0,0,0-35.53,32.09c-23.46,23.23-46,47.45-68.84,71.28l-9.68,10.08c-4.15,4.33-8.61,8.73-10,14.8-2.16,9.34,3,19.66,12.71,22,8.83,2.15,19.38-2.24,21.38-11.88,1.25-6-.38-11.92-5.37-15.77a15,15,0,0,0-16.66-1.17c-45.55,27.77-78.18,71-112.66,110.66q-55.85,64.23-115.48,125-33.69,34.35-68.54,67.51c-5.69,5.43-5.87,15.83,0,21.22a15.3,15.3,0,0,0,21.21,0Z" transform="translate(-6928.64 -6932.5)"/>
  <path class="a" d="M7405.37,6941.23l-101,88.5c-32.53,28.5-65.09,57.05-95.68,87.66-31,31-59.56,64.28-88.64,97l-89.72,101-44.48,50c-14.39,16.19-29,32.25-42.27,49.38-3.79,4.89-7.52,9.81-11.1,14.85-2,2.89-2.58,8.26-1.52,11.56a15.6,15.6,0,0,0,5.38,7.79c5.38,4.16,15,4.67,19.7-1.17q46.35-57.65,96.78-111.85,50.11-53.8,104-103.92,30.36-28.2,61.85-55.17c6-5.12,5.65-16,0-21.21-6.37-5.85-14.84-5.47-21.22,0q-56.17,48.12-108.78,100.22-52.23,51.75-100.63,107.19-27.26,31.22-53.23,63.53l23.56,18.18q4.26-6,8.76-11.82l-2.34,3c12.88-16.62,27-32.22,41-47.93l43.83-49.32,87.51-98.46c28.41-32,56.31-64.52,86.25-95.07,29.53-30.13,61.08-58.18,92.78-86q49-43,98.12-86l12.36-10.83c5.92-5.18,5.7-16,0-21.21-6.31-5.8-14.9-5.53-21.21,0Z" transform="translate(-6928.64 -6932.5)"/>
  <path class="a" d="M6951.81,6960.66c-4.48,1.84-7.86,3.89-10.48,8.13a19.26,19.26,0,0,0-2.47,10.53c.22,5.47,2.45,10.21,4.67,15.13a86.35,86.35,0,0,0,10.07,16.69c8.63,11.33,18.65,21,29.59,30.08,10.39,8.62,21.19,16.76,31.24,25.78,11.78,10.59,21.39,23.05,32.1,34.66,13.36,14.47,29.34,26.07,44.87,38.05l-3-2.34c21.95,17,41.85,36.08,60.91,56.2,19.72,20.81,39,42,58.61,62.94q60.1,64.2,121.38,127.27,34.48,35.49,69.35,70.63c5.53,5.58,15.75,5.95,21.21,0s5.91-15.26,0-21.22q-64.2-64.71-127.15-130.64-31.49-33-62.63-66.24c-20.31-21.68-40.29-43.68-60.75-65.21-11-11.54-22.17-22.85-34-33.53-12.6-11.4-26.08-21.64-39.52-32l3,2.35c-9.56-7.41-19-15-27.5-23.67-8.73-8.91-16.32-18.85-24.87-27.92-13.77-14.61-30.25-26.22-45.49-39.18-8.38-7.12-16.42-14.7-23.21-23.38l2.34,3a88.08,88.08,0,0,1-11.48-19.32l1.52,3.58a23.63,23.63,0,0,1-1.8-5.42l.54,4a11.24,11.24,0,0,1,0-1.74l-.53,4a4.19,4.19,0,0,1,.23-1l-1.52,3.59a2.85,2.85,0,0,1,.48-.87l-2.35,3,.34-.35-3,2.35.42-.28-3.59,1.51.49-.2c3.77-1.55,6.83-3.24,9-6.89a15.32,15.32,0,0,0,1.51-11.56c-1.17-3.63-3.42-7.13-6.89-9-3.32-1.75-7.92-3-11.56-1.51Z" transform="translate(-6928.64 -6932.5)"/>
  <path class="a" d="M6967.19,6958c12.46,11.23,24.94,22.46,36.65,34.49s22.43,25,34,37.2,24.52,23,37.72,33.59c13.5,10.81,26.4,22.25,39,34.09,26,24.42,51.8,49,77.69,73.56s51.52,48.83,77.17,73.38,51.39,49.4,76.83,74.37l9.49,9.34,21.21-21.22-70.8-60.11-20.08-17c-3.08-2.62-6.43-4.39-10.6-4.39a15.26,15.26,0,0,0-10.61,4.39c-5.56,6.06-5.84,15.2,0,21.22l75.62,77.88,21.32,22,18.18-23.56c-.83-.52-1.63-1.07-2.42-1.65l3,2.34a31.61,31.61,0,0,1-5.2-5.14l2.35,3c-.45-.59-.87-1.18-1.29-1.79l-23.56,18.18a85.87,85.87,0,0,1,13.07,12.57l21.22-21.22-8.4-8.4-18.18,23.56q4.5,3.18,8.87,6.54l-3-2.35a263.56,263.56,0,0,1,47.2,47.19l-2.34-3c2.48,3.23,4.89,6.5,7.23,9.84s4.87,6.57,6.62,10.15l-1.51-3.58a3.89,3.89,0,0,1,.34,1.39l-.53-4-.08.67,2.05-7.57-.31.61,2.35-3-.3.26,6.62-3.86-.36.1,4-.54-.38,0,4,.53-.37-.14,3.58,1.51-.34-.21,3,2.34-.27-.27,2.34,3-.17-.3,1.51,3.59-.05-.29v8l.11-.26-6.89,9,.29-.2c3.26-2.29,5.81-5,6.89-9a15.3,15.3,0,0,0-1.51-11.56c-4.1-6.36-13.65-10.2-20.52-5.38a17.79,17.79,0,0,0-7.19,9.17,15.55,15.55,0,0,0-.06,8.53,16.84,16.84,0,0,0,11.63,11.4c6.72,1.79,14.49-1.07,18-7.21,3.29-5.8,2.86-12,0-17.81-1.8-3.69-4.49-7.12-6.85-10.48-3-4.27-6.14-8.42-9.34-12.55a264.49,264.49,0,0,0-34.44-36.68,299.71,299.71,0,0,0-24.68-19.39c-2.89-2-8.25-2.58-11.56-1.51a15.52,15.52,0,0,0-7.79,5.37,15,15,0,0,0,1.17,19.7l8.4,8.41c5.56,5.56,15.74,6,21.22,0,2.62-2.86,4.57-6.61,4.39-10.61a17,17,0,0,0-4.39-10.61,87.23,87.23,0,0,0-13.07-12.56c-3.14-2.44-6.39-4.59-10.61-4.4a15.51,15.51,0,0,0-9.09,3.22c-5.56,4.3-8.07,13.13-3.86,19.35a47,47,0,0,0,14.29,14c6.36,4,14.94,1.85,19.35-3.86a15,15,0,0,0-1.17-19.69l-75.62-77.89-21.33-22-21.21,21.22,70.8,60.11,20.08,17.05c3.09,2.62,6.43,4.39,10.61,4.39a15.25,15.25,0,0,0,10.6-4.39c5.47-6,6-15.33,0-21.22q-38.07-37.53-76.71-74.5-38.41-36.85-77.11-73.43-38.94-36.9-77.89-73.77c-12.61-11.94-25.22-23.89-38.58-35-13-10.85-26.72-20.92-38.9-32.76-12-11.67-22.74-24.57-34-36.91-11.48-12.54-23.8-24.23-36.38-35.64-3-2.68-5.94-5.34-8.9-8-5.83-5.25-15.54-6.18-21.22,0-5.26,5.73-6.22,15.6,0,21.21Z" transform="translate(-6928.64 -6932.5)"/>
</svg>
