<svg xmlns="http://www.w3.org/2000/svg" width="533.42" height="539.92" viewBox="0 0 533.42 539.92">
  <path class="a" d="M7452.78,6969.69c2.41-1.66,4.72-3.43,7-5.26,2.69-2.14,4.54-7.28,4.39-10.6a15.48,15.48,0,0,0-3.22-9.09c-4.33-5.6-13.09-8-19.35-3.86-10.19,6.77-19.57,14.71-28.67,22.86-4.2,3.76-8.37,7.56-12.61,11.28-2.08,1.82-4.17,3.62-6.3,5.39-1,.84-2,1.68-3.06,2.5s-5.3,4.09-1.49,1.2c-18.3,13.85-37.73,26.05-56.47,39.28-38.92,27.49-72.58,62.21-104.34,97.55-15.93,17.73-30.78,36.46-47.07,53.88-8.26,8.83-16.79,17.4-25.19,26.1s-15.64,18.46-22.44,28.53c-3,4.45-6,8.92-9.16,13.27-.6.82-3.81,4.87-.72,1-.8,1-1.58,2-2.39,3-2,2.37-4,4.64-6.1,6.91-7.88,8.66-15.88,17.2-23.61,26-8.43,9.6-16.32,19.59-23.86,29.9-.78,1.07-1.56,2.12-2.36,3.17-.23.31-2,2.68-.45.6s-.24.29-.47.59q-2.8,3.54-5.74,7-5.61,6.59-11.65,12.77c-16.28,16.68-35.68,29.82-51.76,46.73-3.84,4-7.67,8.08-11.83,11.78-1,.87-1.95,1.71-2.95,2.53-.31.25-2.63,2.07-.56.47,2.66-2.07-1.78,1.31-2.85,2.19a45,45,0,0,0-7.09,8c-1.37,1.82-2.62,3.72-3.85,5.63-.69,1.08-1.38,2.15-2.09,3.21-.29.43-.58.85-.88,1.27s-.6.84-.92,1.25q2.24-2.83,1.14-1.5c-.67.74-1.32,1.48-2,2.18-1.61,1.59,3-2.07,1.54-1.18-.41.24-.8.54-1.21.8-1.72,1.09-3.53,2.06-5.24,3.17-5.67,3.66-10.9,8.58-12.5,15.41-1.79,7.63,2.37,16.61,10.48,18.45,7.67,1.75,16.53-2.3,18.45-10.47a7.93,7.93,0,0,1,.47-1.45l-1.51,3.58c.32-.62,1.35-2-.36.21s-.58.77-.11.31c.27-.26.58-.49.84-.75-2.84,2.92-2.57,1.86-1.38,1.12,1.74-1.09,3.5-2.14,5.24-3.21,5.76-3.52,9.62-7.89,13.44-13.41,1.31-1.89,2.51-3.85,3.78-5.76.62-.95,1.28-1.87,1.93-2.81,1.1-1.59-2.56,3.05-.72.95.5-.57,1-1.15,1.52-1.69.85-.88,4.39-3.55.57-.76,1.74-1.27,3.44-2.62,5.11-4,2.21-1.81,4.34-3.74,6.39-5.73,8.27-8,15.83-16.55,24.55-24.09,8.57-7.41,17.6-14.28,26-21.9a244.59,244.59,0,0,0,24.19-25.57q6.29-7.63,12.08-15.68c1.58-2.19,3.38-4.28,4.85-6.54-2.55,3.9.36-.43,1-1.25q1.42-1.77,2.87-3.53c15.24-18.54,33.1-35,47.17-54.44,3.23-4.47,6.28-9.07,9.37-13.63,1.51-2.22,3-4.44,4.57-6.62.65-.92,1.31-1.84,2-2.75.41-.57.84-1.13,1.26-1.7,2.17-2.89-1.85,2.27,0,0,7.23-8.87,15.56-16.81,23.52-25,8.42-8.69,16.75-17.47,24.58-26.69,7.48-8.83,14.93-17.67,22.55-26.37,15.38-17.57,31.23-34.74,47.73-51.27q12.4-12.42,25.31-24.34c4.35-4,8.73-8,13.21-11.86q3-2.61,6.14-5.12l3.46-2.77c.47-.36.94-.72,1.4-1.09-3.48,2.78-.93.73-.23.19,18-13.7,37.33-25.6,55.78-38.7a367.6,367.6,0,0,0,29.07-22.65c8.37-7.3,16.42-15,25-22,1.11-.92,2.23-1.81,3.36-2.71.7-.57,2.24-1.62-1,.75l1.38-1q3.48-2.61,7.1-5l-18.18-23.56c.81-.64,2.69-2,.74-.61-.55.4-1.12.78-1.68,1.17-3.26,2.25-5.82,5.05-6.9,9a15.35,15.35,0,0,0,1.51,11.56c4.14,6.41,13.62,10.14,20.53,5.38Z" transform="translate(-6934.8 -6929.84)"/>
  <path class="a" d="M7417.64,6939.9l-85,66.57c-26.17,20.48-52.4,40.9-77.87,62.25s-49.94,43.43-72.75,67.41c-21.92,23-41.75,47.9-60.91,73.25-18.19,24.07-35.71,48.65-53.95,72.68q-3.45,4.53-6.92,9l2.34-3c-26.16,33.83-54.32,66.22-87.45,93.45-4.84,4-9.71,7.9-14.32,12.13a118.33,118.33,0,0,0-14.46,16.12c-2.19,2.89-2.43,8.24-1.51,11.56a15.22,15.22,0,0,0,6.89,9c3.48,1.84,7.7,2.77,11.56,1.52s6.47-3.61,9-6.9l.49-.65-2.34,3c5.83-7.53,13-13.84,20.26-19.9s14.33-11.81,21.22-18.05a490.71,490.71,0,0,0,37.92-38.67c24.75-28,47-58.11,69.08-88.18,12.2-16.6,24.38-33.22,37-49.54l-2.34,3c14-18.14,28.56-35.88,44.15-52.7,16.83-18.16,34.74-35.31,53.26-51.75,37.41-33.23,77.18-63.69,116.56-94.52l71.42-55.91c2.81-2.2,4.39-7.22,4.39-10.61a15.24,15.24,0,0,0-4.39-10.6c-2.86-2.63-6.62-4.58-10.61-4.4-4.24.19-7.3,1.8-10.61,4.4Z" transform="translate(-6934.8 -6929.84)"/>
  <path class="a" d="M7430.93,6990.43c3.13,4.12,6.12,6.85,11.41,7.56a15.4,15.4,0,0,0,13.11-4.3c5.12-5.38,6.73-13.54,2.91-20.16-4.55-7.89-15.07-10.06-22.79-5.73-4.3,2.41-6.74,6.36-9.64,10.15l2.35-3c-8.64,11.1-19.4,20.19-30.47,28.76l3-2.35c-26.6,20.54-53.2,41-78.84,62.7q-37.24,31.57-72.44,65.5t-68.13,70q-32.94,36.08-63.53,74.18c-20.4,25.42-39.54,51.73-59.13,77.76q-3.42,4.55-6.9,9.05l2.35-3c-16.95,21.92-35.21,43.11-57.2,60.16l3-2.34a190,190,0,0,1-23,15.22c-6.85,3.84-9.72,13.8-5.38,20.52,4.47,6.93,13.19,9.49,20.52,5.38,44.74-25,75.72-67,105.54-107.46,8.64-11.72,17.34-23.4,26.24-34.93l-2.35,3q46.76-60.47,99.35-116.09,52.24-55.22,109.79-105.09,32.45-28.09,66.42-54.35l-3,2.34c10.77-8.31,21.8-16.3,32.33-24.92a177.92,177.92,0,0,0,13.57-12.17,162.63,162.63,0,0,0,14-16.74l-2.34,3a11,11,0,0,1,1.42-1.39l-3,2.35.54-.32-3.59,1.52.57-.2-4,.54.58-.06-4-.53.59.12-3.58-1.51.33.19-5.38-5.38.2.28-1.51-3.59.1.34-.54-4v.37l.53-4a2.14,2.14,0,0,1-.23.73l1.52-3.59-.2.32,2.35-3-.24.24,3-2.34-.25.15,7.57-2.05-.25,0,7.57,2.05-.24-.12,5.38,5.38-.22-.28c-2.47-3.24-4.87-5.76-9-6.89a15.35,15.35,0,0,0-11.56,1.51c-3.2,2.07-6,5.14-6.89,9-.84,3.65-.88,8.42,1.51,11.55Z" transform="translate(-6934.8 -6929.84)"/>
  <path class="a" d="M6939.11,6958.15c34.74,31.45,68.28,64.19,101.09,97.64s64.93,67.64,96.85,102q49.23,52.95,98.3,106.06c31,33.42,61.87,66.9,93.93,99.26,31.88,32.17,64.93,63.24,100.11,91.78q6.55,5.31,13.21,10.5c3.27,2.56,6.26,4.4,10.6,4.4a15.27,15.27,0,0,0,10.61-4.4c2.62-2.86,4.57-6.61,4.39-10.6-.16-3.69-1.34-8.23-4.39-10.61-35.7-27.89-69.2-58.48-101.37-90.34s-63.18-65.13-94-98.39q-49.16-53-98.29-106.08c-31.88-34.37-63.88-68.64-96.54-102.28s-65.93-66.6-100.39-98.36q-6.42-5.93-12.88-11.77c-5.82-5.27-15.55-6.17-21.22,0-5.27,5.74-6.21,15.59,0,21.21Z" transform="translate(-6934.8 -6929.84)"/>
  <path class="a" d="M6943.16,6991.58c25.45,32.93,56.09,61.27,87,88.95s62.58,55.1,90.07,86.43c14.77,16.83,28.28,34.72,43,51.58,15,17.18,31.95,32.26,48.92,47.48,31.36,28.15,59,59.72,86.63,91.46,27.15,31.21,54.64,62.43,86.44,89.05q5.76,4.81,11.71,9.42c3.29,2.55,6.24,4.39,10.6,4.39a15.26,15.26,0,0,0,10.61-4.39c2.62-2.86,4.57-6.61,4.39-10.61-.16-3.68-1.33-8.23-4.39-10.6-32.79-25.4-61-56-88.22-87.1s-54.05-63.18-84.34-91.65c-16.62-15.62-34.36-30.07-50.13-46.59-15.47-16.2-29.13-34-43.43-51.19-27-32.45-58-60.79-89.38-88.81-31-27.64-62.21-55.32-88.87-87.28-3.22-3.85-6.37-7.78-9.44-11.75-2.18-2.82-7.25-4.4-10.61-4.4a15.25,15.25,0,0,0-10.6,4.4c-2.63,2.86-4.58,6.61-4.4,10.6l.54,4a15,15,0,0,0,3.86,6.62Z" transform="translate(-6934.8 -6929.84)"/>
  <path class="a" d="M6977.35,6955.41l64.56,71.09c10,11,20.1,22.05,30.83,32.41s22.63,19.75,34.53,29a242.8,242.8,0,0,1,32.61,30.11c10.11,11.35,19.75,23.11,29.81,34.5,20.37,23.06,41.5,45.44,63,67.45s43.41,43.65,65.35,65.25l8.19,8.05,18.18-23.56q-5.76-4.27-11.43-8.65l3,2.34a754.75,754.75,0,0,1-70-61.43l-21.21,21.22,95.6,88.58,27,25,18.18-23.56a383.31,383.31,0,0,1-39.93-27l3,2.34q-8.67-6.72-16.94-13.91l-18.18,23.56c1.37,1,2.72,2.06,4.07,3.1l-3-2.35a385.1,385.1,0,0,1,68,67.83l21.21-21.21-10.92-12.8L7351.66,7354l82.52,81.54a15.06,15.06,0,0,0,19.7,1.17c5.72-4.42,7.86-13,3.86-19.35a78.14,78.14,0,0,0-18-20.38c-3.28-2.56-6.26-4.4-10.6-4.4a15.27,15.27,0,0,0-10.61,4.4c-2.63,2.86-4.57,6.61-4.39,10.6.16,3.69,1.33,8.23,4.39,10.61a67.81,67.81,0,0,1,12,12l-2.35-3c1.31,1.73,2.53,3.51,3.68,5.34l23.56-18.18-82.52-81.54c-5.59-5.52-15.72-6-21.22,0-5.85,6.38-5.45,14.83,0,21.22l10.93,12.79c2.37,2.79,7.06,4.39,10.6,4.39a15.26,15.26,0,0,0,10.61-4.39c2.62-2.86,4.57-6.61,4.39-10.61-.19-4.24-1.81-7.28-4.39-10.6a397.65,397.65,0,0,0-75.12-73.27c-2.79-2.1-8.36-2.55-11.56-1.52a15.6,15.6,0,0,0-7.79,5.38c-4.29,5.55-4.49,14.77,1.17,19.69a400.85,400.85,0,0,0,59.9,43.25,15,15,0,0,0,19.35-3.86c4.39-5.68,4.33-14.59-1.18-19.69L7273,7227l-27-25c-5.76-5.33-15.59-6.12-21.21,0s-5.95,15.31,0,21.22a783.16,783.16,0,0,0,84.46,72.43c2.81,2.08,8.34,2.55,11.56,1.51a15.44,15.44,0,0,0,7.79-5.38,15,15,0,0,0-1.17-19.69c-21.94-21.59-43.89-43.18-65.49-65.11s-42.86-44.17-63.41-67.07c-10.14-11.3-20-22.82-29.88-34.37s-19.84-22.32-31.45-31.87-23.66-18.08-34.76-28-21.61-21-31.79-32.07c-21.47-23.39-42.71-47-64.06-70.5l-8-8.86c-5.29-5.82-15.91-5.77-21.21,0a15.33,15.33,0,0,0,0,21.22Z" transform="translate(-6934.8 -6929.84)"/>
</svg>
