<svg xmlns="http://www.w3.org/2000/svg" width="534.99" height="524.92" viewBox="0 0 534.99 524.92">
  <path class="a" d="M6942.84,6965.89c11.11,17,25.84,30.58,41.5,43.25,15.43,12.49,31,24.55,44.84,38.89,15.2,15.79,29,32.85,43.68,49.15q22.47,25,46,49c31.4,32.22,63.86,63.38,96.41,94.42q50.53,48.17,101.1,96.3l101.59,96.76,12.61,12c5.69,5.41,15.64,6.07,21.22,0,5.38-5.87,6.06-15.43,0-21.22L7351.57,7329l-99.84-95.1c-31.95-30.44-63.94-60.85-95.08-92.12q-23.38-23.49-46-47.72c-14.9-16-29.23-32.54-43.64-49-13.48-15.42-27.63-29.87-43.53-42.8-14.55-11.82-29.77-23-42.73-36.62q-4.71-4.93-8.91-10.31l2.35,3q-2.88-3.72-5.45-7.64c-4.29-6.56-13.47-9.93-20.52-5.39-6.55,4.22-10,13.51-5.38,20.53Z" transform="translate(-6940.73 -6941.66)"/>
  <path class="a" d="M6970.25,7450.87c36.4-25.56,69.06-55.77,101.51-86.05l101.84-95q49.62-46.32,99.23-92.66c31.41-29.47,62.6-59.21,92.78-90s59.45-62.63,86.71-96.1q5-6.17,10-12.41c2.57-3.25,4.39-6.29,4.39-10.61a15.24,15.24,0,0,0-4.39-10.6c-2.86-2.63-6.61-4.58-10.61-4.4-3.7.17-8.19,1.35-10.6,4.4-25.75,32.55-53.39,63.56-82.11,93.5s-58.61,58.94-88.79,87.49c-31.24,29.55-62.77,58.79-94.2,88.13l-97.91,91.37c-31.09,29-61.71,58.77-94.72,85.64q-6,4.91-12.15,9.65l3-2.35q-9.41,7.26-19.11,14.09c-3.25,2.29-5.8,5-6.89,9a15.35,15.35,0,0,0,1.51,11.56c4.1,6.36,13.65,10.2,20.52,5.38Z" transform="translate(-6940.73 -6941.66)"/>
  <path class="a" d="M7415.07,6953.75a112.22,112.22,0,0,1-12.53,20.21l2.35-3c-11.72,15-26.33,27.45-40.61,40-7.22,6.32-14.4,12.71-21.15,19.52a275.23,275.23,0,0,0-22.85,26.91c-7.67,10-14.92,20.34-22.62,30.33l2.34-3c-21.87,28.23-49.07,51.95-74.86,76.48l-81.39,77.43c-14.69,14-29.19,28.26-45.25,40.69l3-2.35c-13.16,10.11-27.25,19.05-39.64,30.14a121.37,121.37,0,0,0-17.42,19.64c-4.79,6.64-9,13.69-14,20.18l2.35-3c-5.17,6.61-11.36,12-18,17.14l3-2.35c-6.76,5.22-13.62,10.31-20,16-5.57,5-10.85,10.24-15.91,15.71-10.26,11.09-19.65,22.95-29,34.79l25.6,10.61a32.25,32.25,0,0,1,.21-3.67l-.53,4a28.76,28.76,0,0,1,1.7-6.38l-1.51,3.59a29,29,0,0,1,3.7-6.34l-2.35,3a28.63,28.63,0,0,1,4.17-4.14c2.8-2.25,4.39-7.17,4.39-10.6a15.26,15.26,0,0,0-4.39-10.61c-2.86-2.62-6.61-4.57-10.61-4.39-4.21.18-7.34,1.76-10.61,4.39-9.12,7.34-14.21,19.55-14.17,31.12a15.06,15.06,0,0,0,9.23,13.71,14.26,14.26,0,0,0,7.77,1c3-.4,6.67-1.67,8.61-4.12,16.77-21.22,33.79-42.41,55.28-59.09l-3,2.35c9.1-7,18.72-13.67,26.07-22.61s13.06-19,20.09-28.16l-2.35,3c6.4-8.2,14.15-15.11,22.35-21.47l-3,2.35c8.25-6.36,16.89-12.2,25.2-18.48,9.8-7.42,19.14-15.35,28.17-23.68,17.64-16.28,34.85-33,52.23-49.56l52.89-50.31c16.91-16.09,34.2-31.87,50.42-48.67a354.81,354.81,0,0,0,26.38-30.92c7.58-9.9,14.75-20.11,22.36-30l-2.35,3a242.7,242.7,0,0,1,19.72-22.77c6.33-6.37,13-12.37,19.78-18.29,13.38-11.75,27.13-23.29,38.56-37,7-8.39,13.34-17.3,18-27.18,1.76-3.71,2.63-7.47,1.51-11.56a15.27,15.27,0,0,0-6.9-9c-6.67-3.53-16.92-2.19-20.52,5.38Z" transform="translate(-6940.73 -6941.66)"/>
  <path class="a" d="M6997.13,7462.31l71.66-66.25,71.28-65.9,71.66-66.25,71.7-66.29q17.82-16.48,35.65-33c5.46-5.07,10.88-10.21,15.87-15.75,5.64-6.28,10.69-13.09,15.7-19.87,2.27-3.06,4.53-6.12,6.84-9.14l-2.34,3a163,163,0,0,1,28.94-29.21l-3,2.34a159.76,159.76,0,0,1,16.89-11.36c6.71-3.9,13.65-7.8,18.7-13.84s8.62-12.64,12.68-19.23a198,198,0,0,1,11.82-17.08l-2.35,3a198.37,198.37,0,0,1,32.53-33c2.81-2.25,4.4-7.18,4.4-10.61a15.25,15.25,0,0,0-4.4-10.6c-2.86-2.63-6.61-4.58-10.6-4.4-4.22.19-7.34,1.77-10.61,4.4a196,196,0,0,0-30.51,30.44,230.78,230.78,0,0,0-14.23,19.57c-3.91,6.08-7.12,12.65-11.54,18.38l2.35-3a36.3,36.3,0,0,1-5.58,5.64l3-2.35c-6.17,4.74-13.37,8.06-19.81,12.42a181.12,181.12,0,0,0-21.22,16.74c-13,12-22.9,26.49-33.67,40.44l2.35-3c-8.94,11.49-19.52,21.26-30.18,31.11L7257,7181.23l-68.23,63.08-136.32,126-76.53,70.76c-5.78,5.34-5.81,15.88,0,21.21a15.31,15.31,0,0,0,21.21,0Z" transform="translate(-6940.73 -6941.66)"/>
  <path class="a" d="M6951.87,6999.72c41.84,42.84,83.69,85.69,126.46,127.61,21.32,20.88,43.38,41.07,64.3,62.36q15.22,15.51,29.36,32c9.16,10.72,17.78,21.87,26.75,32.75,9.95,12.06,20.54,23.42,32.68,33.32,12.94,10.55,26.76,19.94,40,30.13l-3-2.34c19.62,15.21,37.59,32.4,55.15,49.91,18.31,18.26,36.47,36.66,54.69,55l31.63,31.83c5.54,5.57,15.74,5.95,21.21,0s5.91-15.27,0-21.22l-67.77-68.2c-21.24-21.37-42.32-43-65.67-62.14-13.63-11.16-28.15-21.09-42.08-31.84l3,2.35a217.67,217.67,0,0,1-28.28-26c-8.39-9.29-16.1-19.16-23.94-28.91a664.36,664.36,0,0,0-53.2-58.56c-19.25-18.81-38.87-37.23-58.07-56.1q-29.15-28.65-57.83-57.77-32.19-32.59-64.14-65.43c-5.5-5.63-15.78-5.92-21.22,0s-5.86,15.21,0,21.21Z" transform="translate(-6940.73 -6941.66)"/>
  <path class="a" d="M6973.69,6969.56a358.38,358.38,0,0,1,32.08,22.08l-3-2.35c30.83,23.89,56.43,53.27,82.67,81.93q41.07,44.85,82.88,89c27.77,29.36,55.7,58.6,84.05,87.41a575,575,0,0,0,42.55,39.46c14.59,12.09,29.21,24.05,41.72,38.36,6.28,7.17,12.21,14.63,18.57,21.73a205,205,0,0,0,20.73,20c15.85,13.4,32.66,25.71,49.09,38.39l12,9.24c2.86,2.2,8.27,2.42,11.56,1.51a15.29,15.29,0,0,0,9-6.89c1.84-3.48,2.76-7.7,1.52-11.56s-3.62-6.44-6.9-9q-19.89-15.36-39.78-30.72l3,2.35c-15.07-11.65-29.58-23.65-42.08-38.09-6.14-7.1-12-14.44-18.3-21.4a231.29,231.29,0,0,0-20.06-19.42c-14.24-12.37-29.13-23.93-42.83-36.92-14.15-13.4-27.61-27.53-41.17-41.53q-41.68-43-82.68-86.72t-81.25-88c-13-14.19-26.11-28.26-40.29-41.26a378.76,378.76,0,0,0-46.45-36.32q-5.64-3.75-11.43-7.28c-6.71-4.09-16.79-1.68-20.52,5.38a15.3,15.3,0,0,0,5.38,20.53Z" transform="translate(-6940.73 -6941.66)"/>
</svg>
